<?xml version="1.0" encoding="UTF-8"?>
<!DOCTYPE svg PUBLIC "-//W3C//DTD SVG 1.1//EN" "http://www.w3.org/Graphics/SVG/1.1/DTD/svg11.dtd">
<svg xmlns="http://www.w3.org/2000/svg" version="1.1" width="96px" height="96px" style="shape-rendering:geometricPrecision; text-rendering:geometricPrecision; image-rendering:optimizeQuality; fill-rule:evenodd; clip-rule:evenodd" xmlns:xlink="http://www.w3.org/1999/xlink">
<g><path style="opacity:0.979" fill="#f8e030" d="M 76.5,31.5 C 72.8029,29.6367 69.8029,30.3033 67.5,33.5C 62.3784,29.2502 57.7117,29.5836 53.5,34.5C 49.5,29.1667 45.5,29.1667 41.5,34.5C 37.2883,29.5836 32.6216,29.2502 27.5,33.5C 25.8243,31.1663 23.491,30.1663 20.5,30.5C 17.3204,16.5043 22.987,10.0043 37.5,11C 40.4084,5.90935 44.7418,4.24268 50.5,6C 51.9663,6.63547 53.2997,7.46881 54.5,8.5C 57.438,7.42517 60.438,7.2585 63.5,8C 65.1554,9.44425 65.822,11.2776 65.5,13.5C 76.2545,14.9916 79.9212,20.9916 76.5,31.5 Z"/></g>
<g><path style="opacity:1" fill="#feba29" d="M 44.5,13.5 C 49.4373,12.6034 53.4373,14.1034 56.5,18C 62.541,17.8859 65.8744,20.7193 66.5,26.5C 63.8915,26.3944 61.8915,25.2277 60.5,23C 56.1732,23.157 52.8398,21.4903 50.5,18C 45.2372,17.2499 42.2372,19.5832 41.5,25C 39.6739,25.2917 37.8405,25.125 36,24.5C 33.9135,25.4181 31.7468,26.0847 29.5,26.5C 29.2865,24.8561 29.6198,23.3561 30.5,22C 33.0444,20.908 35.7111,20.2414 38.5,20C 40.0269,17.3098 42.0269,15.1432 44.5,13.5 Z"/></g>
<g><path style="opacity:0.987" fill="#f44538" d="M 20.5,30.5 C 23.491,30.1663 25.8243,31.1663 27.5,33.5C 29.1338,49.4725 30.4672,65.4725 31.5,81.5C 35.1667,81.5 38.8333,81.5 42.5,81.5C 42.4193,65.8267 42.086,50.16 41.5,34.5C 45.5,29.1667 49.5,29.1667 53.5,34.5C 53.1389,50.1659 52.8056,65.8326 52.5,81.5C 56.1667,81.5 59.8333,81.5 63.5,81.5C 64.5328,65.4725 65.8662,49.4725 67.5,33.5C 69.8029,30.3033 72.8029,29.6367 76.5,31.5C 77.5958,35.4126 77.7625,39.4126 77,43.5C 75.1655,57.5101 73.3321,71.5101 71.5,85.5C 55.5,85.5 39.5,85.5 23.5,85.5C 20.7583,67.9037 18.925,50.237 18,32.5C 18.7083,31.6195 19.5416,30.9528 20.5,30.5 Z"/></g>
<g><path style="opacity:1" fill="#e2f0f7" d="M 41.5,34.5 C 42.086,50.16 42.4193,65.8267 42.5,81.5C 38.8333,81.5 35.1667,81.5 31.5,81.5C 30.4672,65.4725 29.1338,49.4725 27.5,33.5C 32.6216,29.2502 37.2883,29.5836 41.5,34.5 Z"/></g>
<g><path style="opacity:1" fill="#e1f1f9" d="M 67.5,33.5 C 65.8662,49.4725 64.5328,65.4725 63.5,81.5C 59.8333,81.5 56.1667,81.5 52.5,81.5C 52.8056,65.8326 53.1389,50.1659 53.5,34.5C 57.7117,29.5836 62.3784,29.2502 67.5,33.5 Z"/></g>
</svg>
